<?xml version="1.0" standalone="no"?>
<!DOCTYPE svg PUBLIC "-//W3C//DTD SVG 20010904//EN"
 "http://www.w3.org/TR/2001/REC-SVG-20010904/DTD/svg10.dtd">
<svg version="1.0" xmlns="http://www.w3.org/2000/svg"
 width="234.000000pt" height="234.000000pt" viewBox="0 0 234.000000 234.000000"
 preserveAspectRatio="xMidYMid meet">
<metadata>
Created by potrace 1.11, written by Peter Selinger 2001-2013
</metadata>
<g transform="translate(0.000000,234.000000) scale(0.100000,-0.100000)"
fill="#000000" stroke="none">
<path d="M1013 2325 c0 -8 4 -12 9 -9 5 3 6 10 3 15 -9 13 -12 11 -12 -6z"/>
<path d="M1086 2328 c7 -10 -74 -30 -88 -22 -6 4 -8 3 -5 -3 6 -10 -28 -25
-58 -28 -5 0 -15 -4 -22 -8 -29 -18 -170 -57 -190 -52 -12 3 -25 1 -28 -5 -4
-6 1 -7 12 -3 14 4 15 3 7 -6 -6 -7 -21 -13 -33 -14 -11 -1 -21 -5 -21 -10 0
-4 -5 -5 -10 -2 -8 5 -7 12 2 23 12 15 11 16 -4 3 -10 -7 -15 -17 -12 -22 3
-5 -4 -9 -15 -9 -22 0 -28 15 -11 23 6 3 5 4 -2 3 -7 -2 -12 -12 -11 -23 1
-11 -3 -20 -10 -21 -30 -2 -102 -24 -114 -34 -7 -6 -13 -8 -13 -4 0 4 -13 0
-29 -9 -17 -8 -38 -17 -48 -18 -10 -2 -26 -8 -37 -12 -11 -5 -26 -3 -38 4 -16
10 -19 10 -12 -1 9 -15 15 -35 17 -60 1 -9 3 -15 6 -13 7 8 41 -37 35 -46 -3
-5 -7 -9 -10 -9 -3 0 -2 5 2 11 4 7 -3 6 -17 -2 -13 -7 -28 -12 -34 -10 -5 1
-6 -1 -2 -5 11 -11 38 -14 32 -4 -3 5 5 8 17 7 26 -1 52 -32 53 -62 0 -11 5
-19 12 -18 7 2 10 -6 8 -19 -5 -25 -13 -34 -22 -24 -4 4 -1 11 7 16 9 6 10 10
3 10 -20 0 -27 -22 -10 -35 9 -7 14 -15 10 -18 -3 -4 -11 -3 -17 3 -7 5 -17 5
-26 -2 -13 -8 -12 -9 1 -5 20 7 39 -11 32 -29 -6 -17 11 -18 24 -1 11 14 11
27 0 44 -4 6 -3 14 3 18 5 3 10 5 11 3 14 -58 17 -88 8 -94 -5 -3 -6 -10 -3
-16 4 -6 2 -8 -4 -4 -6 3 -13 2 -17 -4 -4 -6 -11 -8 -16 -4 -6 4 -6 11 2 20 7
8 7 14 1 14 -5 0 -12 -6 -15 -14 -4 -9 -14 -12 -27 -9 -17 5 -18 8 -8 22 12
14 11 15 -5 2 -20 -16 -11 -31 22 -34 61 -4 -33 -29 -113 -29 -20 0 -21 -5
-21 -82 0 -44 4 -87 8 -94 5 -7 3 -12 -5 -12 -9 0 -9 -3 2 -10 12 -8 13 -13 3
-29 -9 -15 -10 -22 -1 -27 7 -5 8 -2 3 7 -5 8 -4 11 1 6 15 -14 13 -62 -4 -74
-12 -10 -13 -13 -2 -13 11 0 11 -3 2 -12 -12 -12 1 -48 19 -48 6 0 3 7 -6 16
-11 11 -13 20 -5 28 5 7 6 17 2 21 -4 5 -1 5 6 1 8 -5 10 -16 6 -28 -4 -13 -2
-18 4 -14 6 3 9 -2 7 -11 -1 -10 3 -24 9 -32 8 -11 8 -13 -1 -7 -7 4 -13 3
-13 -2 0 -6 6 -12 14 -15 8 -3 13 -14 11 -24 -1 -10 2 -24 7 -30 6 -7 8 -19 5
-27 -3 -8 -1 -16 5 -18 7 -3 5 -15 -6 -36 -16 -31 -16 -32 8 -38 14 -3 31 -13
38 -22 10 -12 10 -14 1 -8 -7 4 -13 3 -13 -3 0 -5 5 -13 10 -16 6 -4 8 -11 5
-16 -4 -5 -1 -9 4 -9 6 0 11 -14 11 -31 0 -21 -4 -28 -12 -23 -8 5 -8 1 1 -10
13 -15 13 -19 1 -26 -8 -5 -18 -6 -24 -3 -5 3 -6 1 -2 -5 5 -8 13 -9 25 -2 12
6 22 5 31 -3 12 -10 12 -9 1 6 -7 9 -10 17 -5 17 5 0 3 4 -5 9 -9 6 -10 11 -2
15 6 4 12 2 12 -3 3 -21 4 -26 13 -40 5 -8 4 -16 -1 -20 -12 -7 -13 -42 -1
-35 11 7 10 -3 -2 -27 -6 -10 -8 -19 -6 -19 3 0 10 9 16 21 9 15 8 24 -1 35
-7 9 -8 14 -1 14 13 0 26 -36 17 -50 -3 -5 0 -10 8 -10 12 0 23 -13 32 -40 9
-28 25 -59 32 -62 4 -3 2 -3 -4 -2 -7 2 -12 0 -11 -4 3 -16 -15 -41 -25 -35
-6 4 -7 1 -2 -7 6 -10 12 -7 27 11 l18 24 20 -24 c11 -12 17 -28 13 -34 -13
-21 -10 -45 4 -40 10 4 11 9 2 19 -7 9 -8 14 -1 14 6 0 16 -13 23 -29 7 -16
17 -27 21 -25 4 3 5 -1 3 -8 -3 -8 -15 -14 -25 -15 -14 -1 -18 2 -13 10 11 18
12 38 2 31 -5 -3 -7 -9 -4 -14 3 -5 1 -11 -5 -15 -15 -9 -1 -27 16 -21 13 5
18 -6 15 -26 -1 -11 11 -10 29 2 13 8 12 10 -2 10 -20 0 -24 15 -6 26 6 4 8 3
5 -3 -4 -6 0 -14 9 -17 9 -4 15 -9 12 -12 -3 -2 9 -21 27 -40 32 -35 38 -55
20 -71 -4 -4 -6 2 -3 14 3 12 3 22 -1 21 -3 0 -13 0 -21 1 -13 1 -13 2 0 11
11 7 11 10 2 10 -7 0 -10 5 -6 12 5 7 3 8 -6 3 -9 -6 -11 -4 -5 6 7 12 5 12
-6 1 -11 -11 -12 -14 -1 -21 8 -5 13 -11 13 -15 -3 -19 0 -27 8 -22 5 3 11 -4
15 -17 3 -12 15 -26 28 -32 22 -10 33 -38 13 -32 -5 1 -9 5 -8 8 1 3 -5 6 -13
6 -12 0 -11 -3 2 -18 9 -10 21 -17 28 -16 6 1 10 -4 8 -10 -1 -7 3 -13 9 -13
6 0 9 7 6 15 -4 8 -2 17 3 20 9 5 12 -3 12 -25 0 -3 -2 -16 -6 -30 -5 -20 -3
-20 8 5 15 32 4 71 -16 59 -6 -4 -8 -3 -5 3 4 6 0 14 -9 17 -8 3 -12 11 -8 17
5 8 3 9 -6 4 -9 -5 -11 -4 -6 3 5 8 1 10 -11 5 -16 -6 -16 -5 -4 10 13 16 14
16 26 0 7 -10 11 -21 9 -25 -2 -3 5 -9 16 -13 11 -3 20 -10 20 -15 0 -5 9 -18
21 -29 15 -14 17 -21 8 -26 -8 -6 -10 -4 -4 5 6 9 4 11 -4 6 -7 -5 -10 -11 -7
-14 3 -3 0 -12 -7 -20 -8 -11 -8 -14 0 -9 6 4 14 3 18 -2 3 -6 12 -8 20 -4 8
3 15 0 15 -6 0 -6 -8 -11 -17 -12 -13 0 -10 -3 7 -10 34 -14 71 -50 63 -62 -4
-6 -1 -7 7 -2 10 6 12 3 7 -11 -7 -18 -6 -18 6 -2 8 10 18 14 23 10 4 -4 2 1
-5 10 -7 10 -17 15 -22 12 -5 -3 -6 3 -3 13 5 15 4 16 -5 3 -10 -15 -12 -13
-15 13 0 6 -7 13 -13 13 -7 1 -18 2 -24 3 -5 0 -8 5 -5 10 4 5 3 16 0 25 -5
12 -10 14 -19 6 -8 -7 -16 -7 -19 -2 -9 15 25 24 40 11 8 -6 14 -18 14 -25 0
-13 13 -19 33 -15 5 1 7 -2 4 -6 -4 -8 28 -43 35 -40 1 1 2 0 1 -2 -4 -8 23
-29 32 -24 6 2 1 -3 -9 -11 -11 -9 -23 -16 -28 -16 -21 0 -5 -16 18 -18 20 -1
25 2 20 13 -3 9 0 15 10 15 8 0 17 -7 20 -15 4 -8 10 -13 14 -10 12 8 33 -23
24 -36 -4 -7 -3 -9 4 -5 6 3 14 1 17 -5 4 -5 13 -8 20 -5 8 3 19 -2 26 -10 7
-8 30 -29 51 -46 32 -25 42 -29 49 -17 6 9 11 11 17 3 11 -16 84 -11 111 8 13
10 29 14 34 11 6 -3 7 -1 3 6 -4 6 -2 18 4 26 7 8 9 15 4 15 -5 0 -2 5 6 10
10 6 23 4 40 -7 20 -13 23 -14 13 -1 -7 8 -10 18 -6 21 3 4 1 7 -6 7 -7 0 -9
5 -6 10 5 8 11 7 21 -1 14 -12 15 -10 18 24 1 6 -5 12 -11 12 -19 0 -19 8 0
35 9 13 17 20 17 14 0 -5 -5 -15 -10 -20 -7 -7 -2 -14 15 -22 19 -9 24 -9 19
-1 -4 7 -1 10 7 7 8 -3 13 -14 11 -24 -2 -15 -1 -16 7 -5 6 10 4 22 -6 38 -17
25 -24 30 -21 12 2 -6 -4 -14 -12 -16 -10 -3 -11 -2 -4 4 6 4 10 16 8 25 -1
10 3 21 8 25 6 3 8 1 5 -4 -7 -11 16 -26 43 -28 8 0 14 -7 12 -14 -1 -7 2 -10
8 -6 14 9 -8 38 -24 32 -7 -3 -16 6 -22 18 -9 19 -8 22 5 20 9 -1 15 -9 13
-16 -2 -8 0 -11 4 -7 4 4 14 2 22 -5 10 -8 13 -8 9 -1 -4 7 0 15 9 18 9 4 14
9 11 13 -4 3 -13 1 -21 -6 -11 -9 -15 -8 -20 6 -9 24 -8 28 7 29 20 1 66 -29
60 -39 -3 -6 -2 -7 4 -4 11 7 10 54 -1 79 -5 10 -13 15 -19 11 -6 -3 -7 -1 -3
6 4 6 12 8 18 5 7 -5 9 -1 5 9 -6 16 4 22 27 18 5 -1 6 5 3 13 -4 9 -3 15 1
15 23 -4 42 2 37 11 -4 6 -12 8 -18 4 -7 -3 -1 4 13 16 14 12 25 25 25 29 0
11 35 56 36 46 0 -6 2 -18 4 -28 2 -9 -1 -15 -6 -12 -5 4 -6 -2 -3 -12 4 -14
3 -15 -4 -4 -7 9 -12 10 -16 2 -4 -6 -2 -11 4 -11 6 0 8 -4 5 -10 -3 -5 -2
-10 4 -10 10 0 27 38 23 53 -1 4 5 7 14 7 8 0 12 -4 9 -10 -3 -5 -1 -10 5 -10
7 0 10 6 7 14 -7 19 12 36 32 29 9 -4 5 3 -9 15 -14 12 -20 21 -13 22 6 0 14
-4 18 -10 3 -5 13 -6 21 -3 13 5 13 8 2 15 -10 7 -10 11 -1 15 15 5 17 23 4
23 -5 0 -12 -8 -16 -19 -3 -10 -13 -18 -23 -17 -9 0 -16 -5 -14 -12 1 -9 -2
-11 -10 -6 -11 6 -11 5 0 -8 10 -13 10 -17 -4 -22 -9 -4 -19 -4 -22 -1 -3 3
-2 5 3 5 4 0 2 7 -5 16 -8 8 -9 14 -4 12 5 -2 10 2 12 7 2 6 15 26 29 45 15
19 27 36 28 38 6 8 34 -12 29 -20 -4 -7 0 -7 12 0 11 5 26 12 34 16 8 3 3 4
-12 1 -22 -4 -26 -2 -22 10 3 8 9 13 13 11 4 -3 13 0 21 6 12 8 11 9 -3 4 -12
-4 -17 -2 -14 6 2 7 11 12 21 10 9 -2 16 2 16 8 0 6 -4 8 -10 5 -5 -3 -10 -2
-10 3 0 16 13 22 26 11 8 -7 14 -6 20 2 4 7 3 9 -4 5 -6 -3 -13 -2 -17 4 -3 5
2 10 12 11 16 0 16 1 -2 9 -18 7 -19 8 -3 15 10 4 16 11 13 15 -3 4 3 14 12
21 15 12 16 12 9 -6 -6 -16 -5 -17 5 -8 10 10 9 15 -1 28 -7 8 -9 15 -4 15 16
0 58 71 47 78 -5 4 -15 17 -21 28 -9 17 -9 24 2 33 9 8 16 8 20 2 4 -5 1 -13
-4 -16 -8 -5 -6 -13 6 -26 20 -22 34 -16 33 14 -1 20 -2 20 -9 -3 -4 -14 -9
-22 -10 -17 -6 20 -5 33 3 45 7 9 6 17 -2 25 -10 9 -11 8 -5 -8 7 -17 6 -18
-8 -5 -9 8 -12 17 -8 20 4 3 6 13 5 22 -2 10 2 15 10 11 10 -3 13 4 10 29 -3
25 -2 29 6 16 5 -10 18 -15 29 -13 11 2 20 -1 20 -7 0 -6 3 -9 6 -5 3 3 1 14
-5 24 -7 12 -10 14 -11 4 0 -11 -5 -10 -20 4 -11 10 -16 23 -13 29 8 11 13 32
15 53 1 7 6 9 11 6 6 -4 8 0 5 9 -4 8 -1 15 7 15 7 0 12 -5 11 -11 -2 -6 -1
-8 1 -4 3 5 13 3 24 -2 11 -6 19 -7 19 -2 0 6 -10 12 -22 16 -21 5 -22 7 -6
22 17 17 43 10 32 -8 -4 -7 -2 -8 5 -4 8 6 9 12 2 20 -6 7 -8 16 -4 20 4 4 -1
4 -12 1 -18 -6 -17 -4 3 13 l22 21 -22 15 c-20 15 -18 21 6 17 5 -1 3 6 -4 16
-22 28 -24 29 -17 10 4 -10 3 -16 -3 -12 -5 3 -7 -4 -5 -15 2 -11 0 -20 -6
-20 -11 0 -4 49 10 63 5 5 7 16 4 23 -3 8 0 14 5 14 6 0 9 -10 7 -22 -4 -16
-2 -19 7 -10 14 14 20 44 7 36 -11 -6 -12 9 -2 20 11 10 12 37 2 30 -5 -3 -6
-10 -3 -16 5 -7 2 -8 -6 -3 -8 5 -11 4 -6 -3 3 -6 2 -13 -3 -16 -10 -7 -9 9 4
37 4 9 5 23 2 30 -3 8 -1 20 5 28 7 11 8 9 3 -6 -5 -16 -4 -17 6 -8 9 9 9 16
1 26 -9 10 -9 16 0 25 7 7 8 12 3 12 -6 0 -10 11 -10 24 0 13 3 22 8 19 10 -6
9 5 -3 27 -6 12 -6 21 -1 25 8 5 5 54 -3 63 -2 2 -13 4 -24 5 -11 0 -19 4 -16
8 2 4 -17 6 -42 4 -29 -1 -51 3 -60 12 -19 19 -18 22 6 16 11 -3 18 -9 15 -12
-2 -4 3 -8 11 -8 10 0 11 4 4 11 -5 5 -10 14 -10 20 0 6 5 5 12 -2 16 -16 25
-15 32 4 5 14 4 15 -8 5 -10 -8 -16 -9 -21 -1 -3 6 -11 8 -16 5 -5 -4 -9 -1
-9 4 0 10 14 15 33 12 5 -1 6 3 2 9 -9 15 -48 -8 -42 -25 4 -8 -2 -12 -18 -11
-13 0 -21 4 -19 7 2 4 -3 9 -10 12 -10 4 -14 -1 -13 -14 1 -10 7 -19 14 -19 6
0 15 -4 18 -10 4 -6 -2 -7 -17 -1 -18 7 -23 16 -24 47 0 36 20 69 37 58 10 -6
41 34 35 45 -10 16 -35 2 -31 -18 2 -11 -3 -17 -16 -17 -10 0 -19 4 -19 8 0 4
7 8 16 8 14 0 15 2 3 17 -12 14 -12 15 0 9 10 -7 12 -4 7 12 -4 11 -2 23 3 27
7 4 8 -1 4 -12 -3 -10 -2 -15 2 -10 5 4 20 0 34 -10 25 -16 25 -16 11 2 -14
17 -13 18 5 11 11 -4 16 -4 12 0 -4 4 1 13 11 21 14 11 14 12 1 8 -21 -8 -55
40 -36 52 18 11 38 13 31 2 -3 -5 -10 -6 -16 -3 -7 4 -8 2 -4 -5 4 -6 12 -9
17 -6 5 4 9 1 9 -5 0 -7 -7 -9 -16 -6 -8 3 -12 2 -9 -3 3 -6 14 -9 24 -8 14 1
17 5 11 17 -8 15 -10 22 -10 41 0 5 -6 7 -12 3 -9 -5 -9 -2 1 9 7 9 11 17 7
17 -4 0 1 11 10 25 9 14 21 22 27 18 6 -3 7 -1 3 6 -4 6 -15 10 -24 9 -11 -2
-16 3 -14 12 3 12 1 13 -9 3 -16 -16 -29 -17 -29 -2 0 5 4 8 8 5 5 -3 9 1 9 9
0 13 -3 12 -18 -1 -17 -15 -19 -15 -29 8 -7 14 -18 25 -25 25 -8 0 -12 -4 -9
-8 2 -4 0 -10 -6 -14 -5 -3 -10 -1 -10 5 0 6 -4 8 -10 5 -5 -3 -10 -1 -10 6 0
8 -5 7 -17 -2 -15 -12 -16 -12 -10 4 5 12 3 16 -5 11 -8 -5 -9 -2 -5 10 4 11
3 15 -4 11 -6 -4 -8 -13 -5 -21 3 -8 1 -14 -4 -14 -10 0 -14 13 -11 40 2 12 0
13 -7 1 -8 -11 -11 -11 -16 0 -3 8 -3 4 0 -8 5 -21 4 -22 -22 -8 -15 8 -32 11
-37 8 -6 -3 -7 -1 -3 6 4 6 12 8 18 5 7 -4 8 -2 4 5 -5 7 -13 8 -23 2 -20 -11
-55 -2 -46 12 4 6 0 8 -10 4 -11 -4 -22 2 -33 16 l-16 22 7 -25 c5 -19 4 -22
-4 -10 -6 8 -11 12 -11 7 0 -4 -12 1 -27 10 -15 10 -27 17 -28 16 0 -1 -10 0
-22 3 -23 6 -37 29 -28 45 4 5 -1 6 -9 3 -12 -5 -13 -11 -5 -25 8 -15 6 -19
-6 -19 -9 0 -13 5 -10 10 6 9 -10 14 -42 13 -7 -1 -10 4 -7 9 4 6 -2 7 -17 3
-24 -7 -24 -7 -4 9 19 16 19 16 -6 7 -19 -7 -34 -5 -54 5 -15 8 -31 12 -35 9
-5 -3 -11 -1 -15 5 -6 10 7 14 33 11 6 -1 12 3 12 8 0 12 -37 6 -55 -9 -9 -8
-17 -7 -27 3 -7 7 -19 12 -27 9 -8 -3 -11 0 -8 5 3 5 -24 9 -68 9 -40 -1 -71
-4 -69 -8z m44 -95 c0 -3 -7 -3 -15 1 -8 3 -15 0 -15 -6 0 -6 -3 -9 -6 -5 -11
10 6 26 21 20 8 -3 15 -7 15 -10z m-77 -20 c-3 -7 -6 -13 -8 -13 -2 0 -5 6 -8
13 -3 8 1 14 8 14 7 0 11 -6 8 -14z m247 -3 c6 -11 8 -20 6 -20 -3 0 -10 9
-16 20 -6 11 -8 20 -6 20 3 0 10 -9 16 -20z m-272 -15 c-3 -3 -9 2 -12 12 -6
14 -5 15 5 6 7 -7 10 -15 7 -18z m-43 5 c-3 -5 -14 -10 -23 -9 -14 0 -13 2 3
9 27 11 27 11 20 0z m387 -14 c4 3 9 1 12 -4 3 -6 -1 -9 -10 -8 -9 1 -21 11
-26 22 -9 18 -8 18 5 2 8 -10 16 -15 19 -12z m-429 -1 c4 -8 3 -16 -1 -19 -4
-3 -9 4 -9 15 -2 23 3 25 10 4z m477 -16 c15 -28 5 -23 -15 7 -9 15 -12 23 -6
20 6 -4 16 -16 21 -27z m-536 -15 c3 -8 2 -12 -4 -9 -6 3 -10 10 -10 16 0 14
7 11 14 -7z m577 -7 c-10 -9 -11 -8 -5 6 3 10 9 15 12 12 3 -3 0 -11 -7 -18z
m29 -2 c0 -8 -4 -15 -10 -15 -5 0 -7 7 -4 15 4 8 8 15 10 15 2 0 4 -7 4 -15z
m-660 -6 c0 -5 -3 -8 -7 -7 -5 1 -19 -3 -33 -10 -22 -12 -23 -11 -8 1 10 8 16
16 13 18 -2 3 5 5 15 6 11 1 20 -2 20 -8z m-80 -19 c0 -5 -2 -10 -4 -10 -3 0
-8 5 -11 10 -3 6 -1 10 4 10 6 0 11 -4 11 -10z m790 4 c0 -8 -19 -13 -24 -6
-3 5 1 9 9 9 8 0 15 -2 15 -3z m-809 -21 c13 -16 12 -17 -3 -4 -17 13 -22 21
-14 21 2 0 10 -8 17 -17z m949 -8 c0 -2 -6 -5 -13 -8 -8 -3 -14 1 -14 8 0 7 6
11 14 8 7 -3 13 -6 13 -8z m250 5 c0 -5 -4 -10 -10 -10 -5 0 -10 5 -10 10 0 6
5 10 10 10 6 0 10 -4 10 -10z m-1266 -20 c-6 -6 -15 -5 -24 1 -13 9 -12 10 3
5 9 -3 17 0 17 6 0 6 3 8 7 5 4 -4 2 -12 -3 -17z m1046 6 c0 -2 -7 -7 -16 -10
-8 -3 -12 -2 -9 4 6 10 25 14 25 6z m-1126 -22 c3 -8 2 -12 -4 -9 -6 3 -10 10
-10 16 0 14 7 11 14 -7z m1143 1 c0 -8 -4 -12 -9 -9 -5 3 -6 10 -3 15 9 13 12
11 12 -6z m-1181 -19 c1 -7 -4 -13 -12 -13 -9 0 -11 4 -4 12 5 7 8 15 5 18 -3
4 -2 5 2 2 4 -3 8 -11 9 -19z m1239 14 c3 -5 1 -10 -4 -10 -6 0 -11 5 -11 10
0 6 2 10 4 10 3 0 8 -4 11 -10z m-1280 -20 c3 -5 1 -10 -4 -10 -6 0 -11 5 -11
10 0 6 2 10 4 10 3 0 8 -4 11 -10z m1339 2 c3 -5 -1 -9 -9 -9 -8 0 -12 4 -9 9
3 4 7 8 9 8 2 0 6 -4 9 -8z m-1379 -24 c-9 -6 -19 -7 -22 -4 -4 3 -1 6 6 6 7
0 9 4 6 10 -4 6 1 7 11 3 15 -6 15 -7 -1 -15z m-38 -3 c0 -8 -4 -12 -9 -9 -5
3 -6 10 -3 15 9 13 12 11 12 -6z m38 -35 c4 -6 1 -9 -7 -8 -7 2 -12 -3 -10
-10 1 -8 -2 -11 -8 -7 -8 5 -7 11 1 21 14 17 16 17 24 4z m1409 -38 c3 -5 -1
-9 -9 -9 -8 0 -12 4 -9 9 3 4 7 8 9 8 2 0 6 -4 9 -8z m105 -36 c9 -10 8 -15
-3 -19 -16 -7 -26 1 -26 20 0 17 14 17 29 -1z m-28 -79 c-10 -9 -11 -8 -5 6 3
10 9 15 12 12 3 -3 0 -11 -7 -18z m-1421 -3 c0 -8 -19 -13 -24 -6 -3 5 1 9 9
9 8 0 15 -2 15 -3z m1305 -3 c-9 -8 -36 -10 -30 -2 2 4 11 8 20 8 8 0 13 -3
10 -6z m-1419 -36 c-1 -8 -5 -17 -8 -21 -5 -4 -4 16 1 34 3 9 9 -1 7 -13z
m1414 1 c0 -2 -7 -7 -16 -10 -8 -3 -12 -2 -9 4 6 10 25 14 25 6z m-1299 -49
c-10 -9 -11 -8 -5 6 3 10 9 15 12 12 3 -3 0 -11 -7 -18z m-13 -72 c-3 -3 -9 2
-12 12 -6 14 -5 15 5 6 7 -7 10 -15 7 -18z m1329 -20 c0 -8 -4 -12 -9 -9 -5 3
-6 10 -3 15 9 13 12 11 12 -6z m-1439 -50 c-3 -3 -9 2 -12 12 -6 14 -5 15 5 6
7 -7 10 -15 7 -18z m1602 5 c0 -5 -4 -10 -10 -10 -5 0 -10 5 -10 10 0 6 5 10
10 10 6 0 10 -4 10 -10z m-1684 -49 c0 -19 -19 -22 -33 -6 -4 4 -3 5 3 2 7 -4
14 0 18 8 7 20 12 19 12 -4z m-1 -91 c-3 -4 0 -11 5 -13 6 -3 5 -4 -1 -3 -7 1
-13 10 -15 19 -1 9 2 15 7 11 5 -3 7 -9 4 -14z m1685 -40 c0 -5 -2 -10 -4 -10
-3 0 -8 5 -11 10 -3 6 -1 10 4 10 6 0 11 -4 11 -10z m-1660 -85 c-5 -7 -9 -14
-7 -16 1 -2 0 -3 -2 -1 -11 7 -7 29 5 29 9 0 11 -4 4 -12z m11 -88 c-10 -9
-11 -8 -5 6 3 10 9 15 12 12 3 -3 0 -11 -7 -18z m1729 -6 c0 -5 -7 -14 -15
-21 -9 -7 -13 -15 -10 -18 6 -6 -14 -32 -26 -32 -7 0 -6 30 1 50 2 3 2 9 1 13
-1 5 3 6 8 3 5 -4 12 -2 16 4 8 12 25 13 25 1z m-124 -27 c1 -9 0 -13 -4 -10
-3 4 -7 14 -8 22 -1 9 0 13 4 10 3 -4 7 -14 8 -22z m-1576 -34 c0 -5 -4 -10
-10 -10 -5 0 -10 5 -10 10 0 6 5 10 10 10 6 0 10 -4 10 -10z m1560 0 c0 -5 -2
-10 -4 -10 -3 0 -8 5 -11 10 -3 6 -1 10 4 10 6 0 11 -4 11 -10z m-1617 -83 c3
-8 -1 -14 -9 -14 -8 0 -14 6 -14 14 0 7 4 13 9 13 5 0 11 -6 14 -13z m1593 -2
c-1 -8 -6 -18 -11 -22 -4 -4 -5 -2 -1 5 4 7 2 12 -6 12 -9 0 -9 3 2 10 19 12
19 13 16 -5z m-1470 -58 c4 -3 -4 -4 -16 -2 -30 6 -40 16 -12 12 12 -2 24 -6
28 -10z m1448 -15 c3 -5 -1 -9 -9 -9 -8 0 -12 4 -9 9 3 4 7 8 9 8 2 0 6 -4 9
-8z m-29 -60 c-17 -15 -18 -15 -6 0 7 9 9 23 5 30 -6 10 -4 11 7 0 11 -10 10
-15 -6 -30z m-1400 -2 c-3 -5 -12 -10 -18 -10 -7 0 -6 4 3 10 19 12 23 12 15
0z m51 -96 c1 -9 0 -13 -4 -10 -3 4 -7 14 -8 22 -1 9 0 13 4 10 3 -4 7 -14 8
-22z m1425 -23 c-5 -9 -18 -25 -30 -35 -11 -10 -18 -22 -16 -27 3 -4 -5 -15
-17 -23 -12 -9 -19 -16 -14 -16 5 0 3 -7 -4 -15 -7 -8 -9 -15 -4 -15 5 -1 -1
-9 -14 -20 -13 -10 -22 -20 -22 -22 1 -2 -4 -15 -11 -30 -13 -29 -24 -35 -34
-18 -4 6 -3 10 2 9 20 -3 27 2 13 11 -13 8 -12 10 3 10 10 0 16 4 12 9 -3 5
-1 12 5 16 6 4 8 10 5 15 -3 5 2 13 11 18 9 5 15 12 15 15 -3 20 1 26 20 32
17 6 19 9 8 16 -8 5 -9 9 -3 9 6 0 11 10 10 22 0 13 5 23 12 24 6 1 15 3 20 4
4 1 9 2 12 2 3 0 7 8 7 19 2 17 0 18 -13 4 -19 -19 -25 -19 -18 0 4 8 10 15
16 15 5 0 6 6 2 13 -4 6 2 4 14 -7 15 -13 19 -23 13 -35z m-123 14 c-3 -3 -9
2 -12 12 -6 14 -5 15 5 6 7 -7 10 -15 7 -18z m-13 -15 c3 -6 -1 -7 -9 -4 -18
7 -21 14 -7 14 6 0 13 -4 16 -10z m-1285 -14 c0 -3 -4 -8 -10 -11 -5 -3 -10
-1 -10 4 0 6 5 11 10 11 6 0 10 -2 10 -4z m1268 -41 c-3 -3 -9 2 -12 12 -6 14
-5 15 5 6 7 -7 10 -15 7 -18z m-1215 -60 c-3 -9 -8 -14 -10 -11 -3 3 -2 9 2
15 9 16 15 13 8 -4z m29 -33 c-7 -2 -9 -9 -5 -15 3 -7 2 -8 -2 -4 -16 14 -14
36 3 29 10 -4 12 -7 4 -10z m1098 -46 c0 -3 -4 -8 -10 -11 -5 -3 -10 -1 -10 4
0 6 5 11 10 11 6 0 10 -2 10 -4z m-1047 -31 c-3 -9 -8 -14 -10 -11 -3 3 -2 9
2 15 9 16 15 13 8 -4z m978 -48 c-10 -9 -11 -8 -5 6 3 10 9 15 12 12 3 -3 0
-11 -7 -18z m-40 -60 c-10 -9 -11 -8 -5 6 3 10 9 15 12 12 3 -3 0 -11 -7 -18z
m-846 -6 c-9 -8 -36 -10 -30 -2 2 4 11 8 20 8 8 0 13 -3 10 -6z m825 -15 c0
-2 -8 -10 -17 -17 -16 -13 -17 -12 -4 4 13 16 21 21 21 13z m-819 -39 c-10 -9
-11 -8 -5 6 3 10 9 15 12 12 3 -3 0 -11 -7 -18z m34 -7 c-3 -5 -12 -10 -18
-10 -7 0 -6 4 3 10 19 12 23 12 15 0z m29 -26 c3 -8 2 -12 -4 -9 -6 3 -10 10
-10 16 0 14 7 11 14 -7z m633 -60 c-3 -3 -12 -4 -19 -1 -8 3 -5 6 6 6 11 1 17
-2 13 -5z m-567 -9 c0 -7 -30 -13 -34 -7 -3 4 4 9 15 9 10 1 19 0 19 -2z m537
-30 c0 -8 -4 -12 -9 -9 -5 3 -6 10 -3 15 9 13 12 11 12 -6z m-497 1 c0 -2 -6
-9 -14 -15 -11 -9 -16 -9 -22 0 -4 7 -3 9 4 5 6 -3 13 -2 17 4 6 10 15 14 15
6z m639 -16 c4 0 7 -9 7 -20 0 -24 -4 -25 -28 -3 -22 20 -24 37 -2 29 9 -3 19
-6 23 -6z m-164 -9 c3 -5 2 -12 -3 -15 -5 -3 -9 1 -9 9 0 17 3 19 12 6z m-340
-83 c5 4 5 1 1 -6 -6 -10 -11 -10 -22 -1 -8 6 -14 14 -14 16 0 3 6 0 13 -6 8
-6 18 -7 22 -3z m240 2 c3 -6 -1 -7 -9 -4 -18 7 -21 14 -7 14 6 0 13 -4 16
-10z m-20 -29 c-9 -8 -36 -10 -30 -2 2 4 11 8 20 8 8 0 13 -3 10 -6z m-183
-22 c2 -2 1 -3 -1 -2 -2 2 -9 -2 -16 -7 -8 -7 -12 -5 -12 4 0 12 22 16 29 5z
m312 -12 c3 3 6 1 6 -6 0 -7 -6 -11 -14 -8 -16 6 -40 -16 -30 -26 4 -4 -3 -5
-15 -2 -19 3 -26 -5 -22 -27 1 -11 -56 -61 -73 -64 -9 -1 -19 2 -22 8 -4 6
-10 5 -15 -3 -7 -11 -9 -11 -9 1 0 13 -1 13 -11 0 -9 -13 -10 -13 -6 0 2 8 10
15 18 15 8 1 13 6 11 13 -1 7 2 11 7 10 5 -2 29 14 54 34 30 25 48 33 55 26 6
-6 12 -6 16 1 4 6 2 11 -5 11 -9 0 -8 4 1 15 9 10 17 12 30 5 9 -5 20 -6 24
-3z"/>
<path d="M2059 1224 c-11 -14 -24 -52 -14 -42 2 1 3 6 2 9 -1 4 7 16 17 28 11
12 17 21 14 21 -3 0 -12 -7 -19 -16z"/>
<path d="M1915 820 c-4 -6 -10 -8 -14 -6 -4 3 -8 -1 -8 -9 0 -13 4 -12 19 2
18 16 22 23 14 23 -3 0 -8 -5 -11 -10z"/>
<path d="M1840 700 c-9 -6 -10 -10 -3 -10 6 0 15 5 18 10 8 12 4 12 -15 0z"/>
<path d="M1285 75 c-27 -25 -48 -45 -45 -46 3 0 13 -2 23 -4 9 -2 15 1 11 6
-3 5 -1 9 4 9 5 0 19 9 32 20 13 11 18 20 11 20 -8 0 -7 5 3 16 14 14 20 25
14 24 -2 -1 -25 -21 -53 -45z m25 1 c0 -3 -15 -14 -32 -26 l-33 -22 30 26 c31
27 35 29 35 22z"/>
<path d="M1260 2331 c0 -6 4 -13 10 -16 6 -3 7 1 4 9 -7 18 -14 21 -14 7z"/>
<path d="M957 2319 c7 -7 15 -10 18 -7 3 3 -2 9 -12 12 -14 6 -15 5 -6 -5z"/>
<path d="M933 2307 c0 -8 6 -14 14 -14 9 0 10 4 2 14 -6 7 -12 13 -14 13 -1 0
-2 -6 -2 -13z"/>
<path d="M1363 2310 c-29 -12 -30 -20 -1 -12 16 4 19 2 13 -9 -5 -8 -4 -10 0
-6 7 6 17 39 12 36 -1 0 -12 -4 -24 -9z"/>
<path d="M867 2299 c7 -7 15 -10 18 -7 3 3 -2 9 -12 12 -14 6 -15 5 -6 -5z"/>
<path d="M1433 2295 c0 -8 4 -12 9 -9 5 3 6 10 3 15 -9 13 -12 11 -12 -6z"/>
<path d="M890 2280 c-9 -6 -10 -10 -3 -10 6 0 15 5 18 10 8 12 4 12 -15 0z"/>
<path d="M773 2251 c0 -11 5 -18 9 -15 4 3 5 11 1 19 -7 21 -12 19 -10 -4z"/>
<path d="M1541 2254 c0 -11 3 -14 6 -6 3 7 2 16 -1 19 -3 4 -6 -2 -5 -13z"/>
<path d="M815 2250 c-3 -6 1 -7 9 -4 18 7 21 14 7 14 -6 0 -13 -4 -16 -10z"/>
<path d="M1590 2241 c0 -5 5 -13 10 -16 6 -3 10 -2 10 4 0 5 -4 13 -10 16 -5
3 -10 2 -10 -4z"/>
<path d="M1556 2232 c-3 -5 1 -9 9 -9 8 0 12 4 9 9 -3 4 -7 8 -9 8 -2 0 -6 -4
-9 -8z"/>
<path d="M1653 2225 c-3 -9 -3 -18 -1 -21 3 -3 8 4 11 16 6 23 -1 27 -10 5z"/>
<path d="M1753 2215 c0 -8 4 -12 9 -9 4 3 8 9 8 15 0 5 -4 9 -8 9 -5 0 -9 -7
-9 -15z"/>
<path d="M1706 2196 c6 -15 4 -17 -6 -11 -9 6 -11 4 -5 -4 5 -9 10 -10 18 -2
8 8 7 14 -2 24 -10 10 -11 8 -5 -7z"/>
<path d="M1756 2175 c4 -8 8 -15 10 -15 2 0 4 7 4 15 0 8 -4 15 -10 15 -5 0
-7 -7 -4 -15z"/>
<path d="M1850 2156 c0 -3 9 -10 19 -16 15 -7 22 -7 27 2 4 7 4 10 -1 6 -4 -4
-16 -3 -26 3 -11 5 -19 7 -19 5z"/>
<path d="M356 2142 c-3 -5 1 -9 9 -9 8 0 12 4 9 9 -3 4 -7 8 -9 8 -2 0 -6 -4
-9 -8z"/>
<path d="M1962 2138 c-15 -15 -15 -28 -1 -28 5 0 8 4 4 9 -3 6 3 14 12 20 10
6 13 11 8 11 -6 0 -16 -5 -23 -12z"/>
<path d="M415 2131 c-3 -5 -2 -12 3 -15 5 -3 9 1 9 9 0 17 -3 19 -12 6z"/>
<path d="M2054 2026 c1 -8 5 -18 8 -22 4 -3 5 1 4 10 -1 8 -5 18 -8 22 -4 3
-5 -1 -4 -10z"/>
<path d="M2016 2022 c-2 -4 1 -17 7 -29 9 -16 16 -20 27 -13 13 8 12 10 -3 10
-14 0 -17 5 -12 20 6 19 -8 29 -19 12z"/>
<path d="M294 1984 c1 -7 6 -17 11 -21 4 -4 5 -2 0 6 -6 11 -3 13 13 9 12 -4
20 -3 17 2 -9 15 -43 18 -41 4z"/>
<path d="M2050 1959 c0 -5 5 -7 10 -4 6 3 10 8 10 11 0 2 -4 4 -10 4 -5 0 -10
-5 -10 -11z"/>
<path d="M334 1919 c-4 -8 1 -9 17 -4 21 7 22 6 11 -8 -9 -11 -10 -17 -2 -22
7 -4 9 -18 6 -34 -5 -22 -5 -23 5 -8 6 10 8 25 5 32 -3 8 -1 17 5 21 6 4 6 11
-2 20 -14 17 -35 18 -45 3z"/>
<path d="M333 1875 c0 -8 4 -12 9 -9 5 3 6 10 3 15 -9 13 -12 11 -12 -6z"/>
<path d="M2016 1875 c-9 -26 -7 -32 5 -12 6 10 9 21 6 23 -2 3 -7 -2 -11 -11z"/>
<path d="M335 1840 c3 -5 8 -10 11 -10 2 0 4 5 4 10 0 6 -5 10 -11 10 -5 0 -7
-4 -4 -10z"/>
<path d="M1981 1824 c0 -11 3 -14 6 -6 3 7 2 16 -1 19 -3 4 -6 -2 -5 -13z"/>
<path d="M1955 1799 c-4 -6 -13 -8 -20 -5 -8 3 -19 -2 -25 -10 -10 -11 -10
-14 -1 -14 7 0 10 -4 7 -9 -3 -5 2 -11 12 -13 10 -3 26 6 40 24 19 22 20 27 6
21 -12 -4 -15 -3 -10 5 4 7 5 12 2 12 -3 0 -8 -5 -11 -11z m-2 -19 c3 6 4 5 3
-2 -4 -19 -23 -20 -30 -2 -5 14 -4 15 8 5 10 -8 16 -9 19 -1z"/>
<path d="M420 1755 c-7 -8 -9 -15 -5 -15 4 0 1 -8 -6 -17 -13 -17 -13 -17 7 0
11 9 21 24 21 32 0 19 -2 19 -17 0z"/>
<path d="M301 1717 c2 -1 13 -9 24 -17 19 -14 19 -14 6 3 -7 9 -18 17 -24 17
-6 0 -8 -1 -6 -3z"/>
<path d="M2090 1300 c0 -5 5 -10 10 -10 6 0 10 5 10 10 0 6 -4 10 -10 10 -5 0
-10 -4 -10 -10z"/>
<path d="M236 1268 c3 -5 10 -6 15 -3 13 9 11 12 -6 12 -8 0 -12 -4 -9 -9z"/>
<path d="M270 1229 c0 -5 -4 -7 -10 -4 -5 3 -10 2 -10 -4 0 -5 8 -9 18 -8 18
1 27 27 10 27 -4 0 -8 -5 -8 -11z"/>
<path d="M270 1190 c8 -5 11 -10 7 -10 -4 0 -3 -9 2 -19 11 -20 -8 -48 -24
-33 -5 4 -5 2 -2 -5 8 -12 25 -12 45 1 10 6 10 11 2 21 -7 8 -9 19 -5 26 8 11
-11 29 -30 29 -5 0 -3 -5 5 -10z"/>
<path d="M250 1160 c0 -5 5 -10 11 -10 5 0 7 5 4 10 -3 6 -8 10 -11 10 -2 0
-4 -4 -4 -10z"/>
<path d="M2024 1110 c-4 -8 -8 -17 -8 -20 -1 -3 -5 -10 -9 -17 -4 -6 -3 -14 2
-17 5 -4 12 3 16 14 3 11 12 20 18 20 7 0 6 4 -3 10 -13 8 -13 10 2 10 9 0 19
4 23 9 3 6 -4 9 -15 8 -10 -1 -23 -8 -26 -17z"/>
<path d="M2040 1075 c0 -5 5 -17 10 -25 5 -8 10 -10 10 -5 0 6 -5 17 -10 25
-5 8 -10 11 -10 5z"/>
<path d="M297 1059 c7 -7 15 -10 18 -7 3 3 -2 9 -12 12 -14 6 -15 5 -6 -5z"/>
<path d="M324 1025 c8 -8 18 -15 22 -15 3 0 1 7 -6 15 -7 8 -17 15 -22 15 -5
0 -3 -7 6 -15z"/>
<path d="M1996 999 c2 -4 -1 -11 -8 -16 -10 -6 -8 -14 11 -33 l24 -25 -13 25
c-8 14 -14 26 -14 27 -1 1 8 9 19 17 20 15 20 15 -2 13 -12 0 -20 -4 -17 -8z"/>
<path d="M315 990 c-3 -5 4 -7 15 -5 11 2 20 0 20 -6 0 -5 -4 -9 -10 -9 -5 0
-10 -5 -10 -11 0 -8 5 -7 15 1 9 7 14 18 12 23 -4 13 -35 18 -42 7z"/>
<path d="M2020 966 c0 -2 8 -10 18 -17 15 -13 16 -12 3 4 -13 16 -21 21 -21
13z"/>
<path d="M355 880 c-3 -6 1 -7 9 -4 18 7 21 14 7 14 -6 0 -13 -4 -16 -10z"/>
<path d="M2010 861 c0 -6 4 -13 10 -16 6 -3 7 1 4 9 -7 18 -14 21 -14 7z"/>
<path d="M373 825 c0 -8 4 -12 9 -9 5 3 6 10 3 15 -9 13 -12 11 -12 -6z"/>
<path d="M1973 809 c-2 -23 3 -25 10 -4 4 8 3 16 -1 19 -4 3 -9 -4 -9 -15z"/>
<path d="M414 788 c1 -7 12 -14 24 -14 18 -1 20 2 11 12 -13 16 -23 19 -14 4
3 -5 2 -10 -4 -10 -5 0 -12 5 -14 10 -3 6 -4 5 -3 -2z"/>
<path d="M1940 779 c0 -5 5 -7 10 -4 6 3 10 8 10 11 0 2 -4 4 -10 4 -5 0 -10
-5 -10 -11z"/>
<path d="M395 761 c-3 -5 -2 -12 3 -15 5 -3 9 1 9 9 0 17 -3 19 -12 6z"/>
<path d="M437 754 c7 -3 9 -13 6 -22 -6 -14 -5 -15 9 -2 16 15 7 31 -17 29 -5
0 -5 -3 2 -5z"/>
<path d="M415 720 c3 -5 8 -10 11 -10 2 0 4 5 4 10 0 6 -5 10 -11 10 -5 0 -7
-4 -4 -10z"/>
<path d="M464 722 c4 -7 2 -12 -3 -12 -6 0 -11 -4 -11 -10 0 -15 17 -12 23 5
4 8 1 17 -5 21 -7 4 -8 3 -4 -4z"/>
<path d="M499 678 c-1 -2 -3 -13 -4 -25 -2 -25 2 -28 25 -13 13 8 12 10 -2 10
-10 0 -18 5 -18 11 0 5 5 7 12 3 7 -4 8 -3 4 4 -7 11 -14 15 -17 10z"/>
<path d="M1769 583 c-44 -53 -45 -58 -11 -34 17 12 32 29 32 37 0 18 -4 18
-21 -3z"/>
<path d="M536 518 c3 -5 10 -6 15 -3 13 9 11 12 -6 12 -8 0 -12 -4 -9 -9z"/>
<path d="M595 499 c-4 -6 -5 -12 -2 -15 2 -3 7 2 10 11 7 17 1 20 -8 4z"/>
<path d="M1679 463 c-13 -16 -12 -17 4 -4 16 13 21 21 13 21 -2 0 -10 -8 -17
-17z"/>
<path d="M566 458 c3 -5 10 -6 15 -3 13 9 11 12 -6 12 -8 0 -12 -4 -9 -9z"/>
<path d="M590 446 c0 -2 7 -7 16 -10 8 -3 12 -2 9 4 -6 10 -25 14 -25 6z"/>
<path d="M1660 421 c0 -7 -5 -9 -12 -5 -7 5 -8 3 -3 -5 5 -9 10 -10 18 -2 6 6
8 14 4 18 -4 3 -7 1 -7 -6z"/>
<path d="M629 383 c-13 -16 -12 -17 4 -4 16 13 21 21 13 21 -2 0 -10 -8 -17
-17z"/>
<path d="M1658 387 c-7 -8 -20 -12 -28 -10 -12 4 -12 3 -1 -5 15 -11 4 -21
-21 -17 -9 2 -18 -5 -21 -16 -7 -24 8 -33 30 -19 15 9 14 10 -6 4 -21 -5 -22
-4 -10 9 8 8 16 14 19 14 7 -3 45 26 54 41 10 16 1 15 -16 -1z"/>
<path d="M1670 351 c0 -5 5 -13 10 -16 6 -3 10 -2 10 4 0 5 -4 13 -10 16 -5 3
-10 2 -10 -4z"/>
<path d="M1624 306 c-10 -8 -17 -16 -14 -19 3 -2 14 4 24 14 23 22 18 25 -10
5z"/>
<path d="M1506 258 c3 -5 10 -6 15 -3 13 9 11 12 -6 12 -8 0 -12 -4 -9 -9z"/>
<path d="M830 180 c0 -5 5 -10 10 -10 6 0 10 5 10 10 0 6 -4 10 -10 10 -5 0
-10 -4 -10 -10z"/>
<path d="M950 143 c0 -6 5 -15 10 -18 6 -4 7 -11 4 -17 -4 -7 -9 -6 -14 2 -5
8 -9 8 -13 -3 -6 -16 9 -17 32 -3 10 7 12 3 6 -15 -5 -16 -4 -21 3 -14 16 15
19 50 4 50 -7 0 -17 7 -22 15 -6 9 -10 10 -10 3z"/>
<path d="M1436 122 c-2 -4 -1 -14 4 -22 7 -11 9 -9 7 8 -1 24 -3 26 -11 14z"/>
<path d="M1001 71 c-17 -11 12 -22 37 -15 14 5 14 3 -2 -10 -11 -9 -15 -16 -9
-16 7 0 15 5 19 11 5 8 12 5 23 -10 16 -21 68 -40 55 -20 -3 6 -8 8 -11 5 -3
-3 -15 9 -27 26 -21 31 -60 44 -85 29z m70 -18 c13 -16 12 -17 -3 -4 -17 13
-22 21 -14 21 2 0 10 -8 17 -17z"/>
</g>
</svg>
